<?xml version="1.0" standalone="no"?>
<!DOCTYPE svg PUBLIC "-//W3C//DTD SVG 20010904//EN"
 "http://www.w3.org/TR/2001/REC-SVG-20010904/DTD/svg10.dtd">
<svg version="1.0" xmlns="http://www.w3.org/2000/svg"
 width="148.000000pt" height="149.000000pt" viewBox="0 0 148.000000 149.000000"
 preserveAspectRatio="xMidYMid meet">
<metadata>
Created by potrace 1.16, written by Peter Selinger 2001-2019
</metadata>
<g transform="translate(0.000000,149.000000) scale(0.100000,-0.100000)"
fill="#000000" stroke="none">
<path d="M972 1470 c-256 -67 -582 -324 -767 -605 -152 -232 -222 -447 -196
-601 21 -118 69 -181 176 -231 54 -25 71 -28 165 -28 98 0 110 2 186 36 294
130 586 471 665 776 10 42 19 88 19 102 0 21 10 31 54 54 179 94 254 290 156
408 -76 93 -287 134 -458 89z m283 -56 c164 -45 200 -158 96 -301 -31 -43
-104 -103 -125 -103 -7 0 -17 19 -23 43 -24 88 -117 148 -232 150 -55 0 -76
-5 -127 -31 -179 -91 -413 -345 -524 -567 -77 -154 -125 -365 -84 -365 30 0
54 20 54 46 0 55 43 194 90 291 90 185 294 424 444 522 56 37 78 46 125 48 92
6 154 -39 168 -121 l6 -39 -38 7 c-21 4 -69 21 -107 38 -56 25 -71 28 -83 18
-8 -7 -15 -18 -15 -25 0 -18 137 -78 192 -83 30 -3 48 -9 48 -17 0 -34 -47
-160 -91 -243 -76 -147 -193 -306 -309 -422 -112 -112 -197 -169 -290 -197
-104 -30 -213 10 -265 98 -29 49 -27 170 4 264 96 285 436 746 666 902 161
108 266 130 420 87z"/>
</g>
</svg>
