<?xml version="1.0" standalone="no"?>
<!DOCTYPE svg PUBLIC "-//W3C//DTD SVG 20010904//EN"
 "http://www.w3.org/TR/2001/REC-SVG-20010904/DTD/svg10.dtd">
<svg version="1.0" xmlns="http://www.w3.org/2000/svg"
 width="1761.000000pt" height="403.000000pt" viewBox="0 0 1761.000000 403.000000"
 preserveAspectRatio="xMidYMid meet">
<metadata>
Created by potrace 1.16, written by Peter Selinger 2001-2019
</metadata>
<g transform="translate(0.000000,403.000000) scale(0.100000,-0.100000)"
fill="#000000" stroke="none">
<path d="M4890 3399 c0 -5 -4 -8 -8 -5 -5 3 -184 -300 -399 -672 l-391 -677
-526 -3 -526 -2 0 -25 0 -25 526 -2 527 -3 383 -664 c211 -366 393 -673 404
-683 18 -17 59 -18 805 -18 614 0 789 3 800 13 8 6 189 315 402 684 l388 673
770 0 770 0 389 -675 c215 -371 396 -675 403 -675 7 0 13 -4 13 -10 0 -7 268
-10 785 -10 763 0 786 1 807 19 11 11 193 318 403 683 l383 663 506 3 506 2 0
25 0 25 -504 0 -504 0 -392 680 c-216 374 -397 677 -401 674 -5 -3 -9 0 -9 5
0 8 -241 11 -790 11 -520 0 -790 -3 -790 -10 0 -5 -5 -9 -12 -7 -6 1 -187
-303 -402 -675 l-391 -678 -770 1 -770 0 -385 670 c-212 369 -391 677 -398
685 -11 12 -139 14 -808 14 -552 0 -794 -3 -794 -11z m1949 -714 c306 -532
382 -670 375 -685 -5 -10 -178 -312 -384 -669 l-375 -651 -771 0 -771 0 -383
662 c-210 365 -383 668 -383 673 0 6 172 308 382 673 l383 662 772 0 771 0
384 -665z m4727 -5 l383 -664 -17 -31 c-10 -16 -184 -317 -386 -667 l-368
-638 -772 0 -771 1 -380 660 c-209 363 -381 664 -383 669 -2 5 169 309 380
675 l383 665 773 -3 774 -2 384 -665z"/>
<path d="M5020 3160 l0 -30 665 0 665 0 0 30 0 30 -665 0 -665 0 0 -30z"/>
<path d="M4356 2017 c-17 -12 5 -53 310 -582 181 -313 334 -570 339 -572 6 -2
19 2 28 9 16 12 -12 65 -311 583 -181 313 -333 570 -338 572 -6 2 -18 -3 -28
-10z"/>
<path d="M6647 1459 c-273 -474 -326 -573 -316 -585 7 -8 19 -14 26 -12 8 2
163 260 344 573 295 511 327 571 312 583 -9 6 -22 12 -27 12 -6 -1 -159 -257
-339 -571z"/>
<path d="M9740 3160 l0 -30 665 0 665 0 0 30 0 30 -665 0 -665 0 0 -30z"/>
<path d="M9077 2018 c-14 -12 20 -75 313 -583 181 -313 336 -571 343 -573 8
-2 20 4 26 12 11 13 -39 106 -315 586 -181 313 -334 570 -340 570 -5 0 -18 -6
-27 -12z"/>
<path d="M11539 1748 c-90 -156 -239 -413 -331 -573 -151 -261 -166 -291 -151
-302 9 -7 22 -13 27 -13 6 1 159 258 340 572 307 533 328 572 311 585 -11 7
-22 13 -26 13 -4 0 -81 -127 -170 -282z"/>
<path d="M14915 2396 c-147 -47 -215 -130 -223 -273 -8 -142 39 -227 155 -285
61 -30 75 -32 157 -32 50 0 109 6 132 12 38 11 42 16 63 78 19 51 21 68 11 77
-9 9 -16 6 -28 -13 -39 -59 -97 -107 -138 -114 -121 -21 -230 70 -255 211 -20
112 19 221 99 278 39 27 51 30 117 30 87 0 119 -18 150 -83 19 -38 38 -52 48
-34 3 4 0 37 -5 73 l-10 67 -56 11 c-72 14 -166 13 -217 -3z"/>
<path d="M15642 2383 c2 -10 14 -19 28 -21 47 -6 50 -20 50 -258 0 -242 -3
-254 -56 -254 -15 0 -24 -6 -24 -15 0 -12 20 -15 120 -15 100 0 120 3 120 15
0 9 -9 15 -24 15 -47 0 -56 22 -56 141 l0 109 151 0 151 0 -4 -111 c-4 -120
-13 -139 -65 -139 -14 0 -23 -6 -23 -15 0 -13 21 -15 125 -15 104 0 125 2 125
15 0 8 -9 15 -21 15 -11 0 -29 5 -40 10 -18 10 -19 24 -19 244 0 249 0 251 50
258 14 1 26 11 28 21 3 15 -8 17 -117 17 -114 0 -121 -1 -121 -20 0 -14 7 -20
23 -20 44 0 51 -13 55 -114 l4 -96 -151 0 -151 0 0 88 c0 96 9 119 50 124 14
2 26 11 28 21 3 15 -8 17 -118 17 -110 0 -121 -2 -118 -17z"/>
<path d="M2505 2306 c-147 -47 -215 -130 -223 -273 -8 -142 39 -227 155 -285
61 -30 75 -32 157 -32 50 0 109 6 132 12 38 11 42 16 63 78 19 51 21 68 11 77
-9 9 -16 6 -28 -13 -39 -59 -97 -107 -138 -114 -121 -21 -230 70 -255 211 -20
112 19 221 99 278 39 27 51 30 117 30 87 0 119 -18 150 -83 19 -38 38 -52 48
-34 3 4 0 37 -5 73 l-10 67 -56 11 c-72 14 -166 13 -217 -3z"/>
<path d="M13469 2306 c-129 -46 -198 -146 -199 -287 0 -135 50 -223 158 -276
47 -23 69 -28 132 -27 119 1 202 48 255 146 24 44 30 68 33 141 5 108 -12 161
-76 229 -73 78 -203 110 -303 74z m157 -45 c79 -36 126 -128 127 -251 1 -98
-16 -155 -62 -201 -136 -136 -326 -5 -325 226 0 81 15 133 52 177 58 68 128
85 208 49z"/>
<path d="M642 2293 c2 -9 17 -20 35 -25 59 -15 63 -31 62 -248 -1 -107 -4
-206 -8 -220 -4 -17 -17 -28 -39 -35 -18 -5 -32 -15 -32 -22 0 -10 26 -13 105
-13 87 0 105 3 105 15 0 8 -9 15 -19 15 -10 0 -29 8 -41 18 -21 17 -22 27 -27
205 -3 103 -4 187 -1 187 3 0 87 -101 188 -225 121 -149 189 -225 201 -225 18
0 19 12 19 253 0 272 4 292 52 299 13 2 24 11 26 21 3 15 -7 17 -108 17 -100
0 -111 -2 -108 -17 2 -10 17 -20 37 -24 18 -4 37 -13 41 -20 10 -16 23 -234
18 -316 l-3 -62 -182 219 -183 220 -71 0 c-61 0 -70 -2 -67 -17z"/>
<path d="M1500 2235 l0 -25 260 0 260 0 0 25 0 25 -260 0 -260 0 0 -25z"/>
<path d="M15332 2034 c-57 -40 -65 -119 -16 -168 l26 -25 -36 -34 c-48 -46
-51 -100 -7 -149 28 -31 33 -33 96 -33 64 0 68 1 101 37 53 58 44 135 -20 178
l-28 18 25 17 c57 37 55 130 -3 160 -38 20 -110 19 -138 -1z m105 -27 c22 -16
27 -75 9 -102 -21 -33 -41 -32 -77 4 -35 36 -37 64 -5 96 25 24 44 25 73 2z
m-21 -208 c57 -35 72 -91 34 -129 -46 -46 -120 -6 -120 65 0 28 31 85 47 85 3
0 21 -9 39 -21z"/>
<path d="M16408 2033 c-55 -16 -61 -28 -18 -36 l30 -6 0 -162 0 -161 -30 -11
c-52 -20 -33 -27 65 -27 93 0 123 11 68 25 -15 3 -31 12 -35 18 -4 7 -8 94 -8
195 0 139 -3 182 -12 181 -7 -1 -34 -8 -60 -16z"/>
<path d="M16646 2013 c-9 -56 -7 -73 7 -73 7 0 17 10 22 23 9 20 18 22 98 25
l88 3 -50 -100 c-28 -54 -71 -134 -96 -176 -25 -42 -45 -81 -45 -86 0 -5 13
-9 28 -9 27 0 32 9 120 200 51 111 92 208 92 215 0 12 -23 15 -129 15 l-128 0
-7 -37z"/>
<path d="M1500 2015 l0 -25 260 0 260 0 0 25 0 25 -260 0 -260 0 0 -25z"/>
<path d="M14100 2015 l0 -25 165 0 165 0 0 25 0 25 -165 0 -165 0 0 -25z"/>
<path d="M1500 1795 l0 -25 260 0 260 0 0 25 0 25 -260 0 -260 0 0 -25z"/>
</g>
</svg>
